PathFileType	3	(X/Y/Z)	RCH0000002 BBF 10.c3d
DataRate	CameraRate	NumFrames	NumMarkers	Units	OrigDataRate	OrigDataStartFrame	OrigNumFrames
100.0	100.0	11	23	mm	100.0	398	464
Frame#	Time	MAN			RASI			LKNE			LANK			LHEE			LTOE			RPAT			RKNE			RANK			RMED			RHEE			RTOE			LPAT			RPSI			LMED			LASI			T2			LPSI			T10			RTHI			LTHI			RTIB			LTIB			
		X1	Y1	Z1	X2	Y2	Z2	X3	Y3	Z3	X4	Y4	Z4	X5	Y5	Z5	X6	Y6	Z6	X7	Y7	Z7	X8	Y8	Z8	X9	Y9	Z9	X10	Y10	Z10	X11	Y11	Z11	X12	Y12	Z12	X13	Y13	Z13	X14	Y14	Z14	X15	Y15	Z15	X16	Y16	Z16	X17	Y17	Z17	X18	Y18	Z18	X19	Y19	Z19	X20	Y20	Z20	X21	Y21	Z21	X22	Y22	Z22	X23	Y23	Z23	

398	3.970	801.30776	-27.60500	952.94217	781.90577	-146.51286	665.59285	714.83812	44.40061	336.59756	526.72809	52.66956	146.40481	519.03257	4.85683	184.60939	567.01788	28.17245	108.45946	782.82772	-93.22152	384.75294	748.30472	-154.90796	350.41381	688.42364	-172.98035	82.40093	661.41845	-109.86833	96.66265	637.97845	-155.97831	117.73793	721.51025	-126.47424	73.05066	774.97934	-6.92599	364.94239	666.08805	-106.35321	717.11336	546.83492	-15.67377	144.47419	751.28502	24.77590	639.43621	671.50652	-47.31370	983.19462	653.27230	-37.82076	705.20185	677.97470	-53.00466	797.92296	776.77171	-223.18506	458.91039	704.10292	107.42580	464.60402	735.72620	-228.33759	237.04949	629.93662	108.89508	266.82646	
399	3.980	811.19109	-27.05980	956.36354	791.46111	-148.36299	668.85017	734.23073	43.29159	341.27679	551.23456	49.17168	145.91127	543.28468	0.57219	183.24164	593.71678	25.95856	109.46549	783.20923	-96.45731	385.75968	747.71692	-158.08148	352.37404	688.78662	-172.77615	83.47355	662.56962	-109.60686	98.11738	638.42292	-155.50795	118.90151	722.26991	-126.42527	73.66179	794.15418	-7.33512	371.46187	676.51395	-106.57523	720.62618	573.06923	-18.92827	143.97134	763.15896	23.25964	642.75368	681.40310	-46.55135	986.40276	664.37288	-37.94946	708.74931	688.19669	-53.27827	801.21924	779.95487	-225.87707	460.19375	719.70504	106.69885	468.64093	733.93661	-230.53827	237.98987	649.66757	106.55385	269.76443	
400	3.990	821.14146	-26.62036	959.35380	800.81966	-150.03976	671.67887	753.76872	42.26899	345.82736	576.63755	45.72751	144.81236	568.19418	-3.45145	181.44978	621.19476	23.51985	110.08022	783.87000	-99.36830	386.65783	747.40953	-160.86250	354.21030	689.25779	-172.52094	84.57713	663.82748	-109.27178	99.56326	639.01600	-154.93833	120.11197	723.11879	-126.34180	74.25898	813.31987	-7.61327	377.95322	686.72568	-106.63329	723.61490	599.92237	-22.14990	143.22087	774.89808	21.93496	645.85324	691.41187	-46.03703	989.39627	675.29214	-37.90839	711.82232	698.25912	-53.67006	804.22185	783.13383	-228.21156	461.31236	735.30273	106.16354	472.35708	732.39569	-232.45304	238.96155	670.04539	104.33778	272.07907	
401	4.000	831.18913	-26.29416	961.81729	809.95918	-151.56230	674.04617	773.47006	41.28160	350.12442	602.91759	42.44440	143.16712	593.72234	-7.09258	179.28139	649.36412	20.92086	110.32322	784.94531	-101.98659	387.40576	747.49951	-163.27034	355.88144	689.84414	-172.25297	85.68037	665.17960	-108.90527	100.98802	639.77023	-154.32801	121.36133	724.04978	-126.25347	74.82705	832.43959	-7.86894	384.27522	696.70138	-106.49252	726.01581	627.30242	-25.25481	142.25740	786.51366	20.78500	648.60773	701.56195	-45.77336	992.09388	686.02395	-37.66403	714.31054	708.16883	-54.12302	806.84660	786.35447	-230.21886	462.25628	750.95709	105.76272	475.62967	731.22506	-234.10153	239.91705	691.15926	102.27469	273.73293	
402	4.010	841.35875	-26.07958	963.67872	818.86672	-152.95809	675.93723	793.32437	40.27223	354.06937	630.04704	39.41890	141.03677	619.82855	-10.25792	176.76269	678.15282	18.24002	110.21939	786.52970	-104.33703	387.96621	748.07258	-165.32964	357.35298	690.53715	-171.99708	86.75316	666.60670	-108.53577	102.37473	640.68091	-153.71778	122.63644	725.04724	-126.17966	75.35112	851.45578	-8.21852	390.30512	706.43168	-106.13196	727.78688	655.13426	-28.16680	141.09363	798.02389	19.78022	650.91151	711.87487	-45.74030	994.42634	696.57322	-37.19880	716.13015	717.93601	-54.57823	809.02623	789.65814	-231.93422	463.01812	766.71811	105.42844	478.37285	730.50754	-235.50231	240.81303	713.05278	100.38002	274.72989	
403	4.020	851.66873	-25.96676	964.88620	827.54403	-154.25885	677.35319	813.29114	39.18147	357.58766	657.98610	36.72766	138.47810	646.46811	-12.88860	173.89691	707.49818	15.55929	109.79391	788.67501	-106.43630	388.30897	749.18128	-167.06798	358.59895	691.31159	-171.76243	87.77018	668.08273	-108.17530	103.70480	641.72606	-153.12621	123.92211	726.08599	-126.12814	75.81823	870.29227	-8.77801	395.93651	715.92396	-105.54551	728.90836	683.35502	-30.82401	139.71906	809.45465	18.88197	652.68347	722.36381	-45.89792	996.33731	706.95847	-36.51160	717.22654	727.57671	-54.97883	810.71092	793.08341	-233.39429	463.59130	782.62150	105.08694	480.53643	730.28185	-236.67068	241.61339	735.71920	98.65421	275.10365	
404	4.030	862.13115	-25.93879	965.41271	836.01134	-155.49645	678.30846	833.30151	37.95168	360.62415	686.67713	34.42008	135.53908	673.58784	-14.96342	170.66720	737.33718	12.95345	109.06818	791.39343	-108.29558	388.41286	750.84641	-168.51537	359.60344	692.12825	-171.54383	88.71375	669.57698	-107.82064	104.96136	642.86988	-152.55056	125.20425	727.13297	-126.09605	76.21878	888.85883	-9.65515	401.07595	725.20521	-104.74145	729.38207	711.90585	-33.18456	138.10265	820.83956	18.04664	653.86832	733.03329	-46.19056	997.78345	717.21313	-35.61672	717.57515	737.11487	-55.27354	811.86778	796.66771	-234.63514	463.96945	798.68710	104.66401	482.10144	730.54331	-237.61915	242.29169	759.10105	97.08174	274.90452	
405	4.040	872.75198	-25.97318	965.25632	844.30927	-156.69946	678.82741	853.26305	36.53079	363.13743	716.03714	32.51334	132.25697	701.11909	-16.49920	167.04332	767.59402	10.48032	108.05724	794.66493	-109.92533	388.26663	753.06157	-169.70496	360.36134	692.93995	-171.32629	89.57503	671.05770	-107.45811	106.13232	644.06894	-151.97255	126.47239	728.15128	-126.07319	76.54730	907.05793	-10.94233	405.63942	734.32267	-103.74099	729.22960	740.72071	-35.23072	136.19900	832.21914	17.23002	654.43610	743.87961	-46.55183	998.73407	727.38537	-34.54166	717.18051	746.58375	-55.41960	812.47967	800.44875	-235.69167	464.14684	814.91853	104.09013	483.07310	731.25064	-238.36000	242.83243	783.09342	95.63209	274.18703	
406	4.050	883.53164	-26.04337	964.43899	852.49849	-157.89076	678.94077	873.06683	34.87579	365.09426	745.94853	30.99054	128.65905	728.96862	-17.54838	162.99128	798.16618	8.17356	106.76892	798.44814	-111.34041	387.86849	755.80088	-170.67390	360.87780	693.70011	-171.09184	90.35393	672.49706	-107.07087	107.21261	645.28034	-151.36779	127.72140	729.10597	-126.04673	76.80251	924.79306	-12.71046	409.54974	743.34246	-102.57603	728.48947	769.71315	-36.97109	133.95693	843.63919	16.39136	654.38058	754.89162	-46.91008	999.17055	737.53624	-33.32404	716.07381	756.02651	-55.38505	812.54354	804.46571	-236.59782	464.11917	831.30347	103.30490	483.47283	732.33823	-238.90899	243.23105	807.54945	94.26214	273.00033	
407	4.060	894.46577	-26.12034	963.00442	860.65720	-159.08633	678.68216	892.59594	32.95560	366.46556	776.24894	29.80214	124.76578	757.00820	-18.19407	158.48429	828.91049	6.03890	105.20495	802.69309	-112.56380	387.22438	759.02897	-171.46358	361.16609	694.37229	-170.82690	91.05766	673.87652	-106.64687	108.20518	646.47080	-150.71649	128.95222	729.97048	-126.00623	76.98648	941.97763	-15.00412	412.73578	752.34600	-101.28653	727.21365	798.76260	-38.44032	131.32933	855.14844	15.49677	653.71686	766.05197	-47.19374	999.08560	747.73621	-32.00806	714.30940	765.49565	-55.15047	812.06867	808.76027	-237.38702	463.88436	847.81466	102.26061	483.33038	733.73227	-239.28871	243.49259	832.28686	92.91973	271.38279	
408	4.070	905.54600	-26.17407	961.01503	868.87666	-160.29519	678.08498	911.73414	30.75336	367.22475	806.72173	28.87082	120.59555	785.06455	-18.54286	153.51368	859.63125	4.05472	103.36373	807.35442	-113.62796	386.34512	762.71213	-172.11855	361.24413	694.93932	-170.52874	91.69837	675.19203	-106.18587	109.12083	647.62535	-150.01320	130.17173	730.73259	-125.94801	77.10312	958.54324	-17.83811	415.13406	761.42480	-99.91783	725.46390	827.70230	-39.69613	128.28282	866.79563	14.52170	652.47877	777.33860	-47.33633	998.48272	758.06050	-30.64114	711.96065	775.05151	-54.71005	811.07501	813.37727	-238.09228	463.44288	864.41125	100.92485	482.67749	735.36858	-239.53069	243.62918	857.09461	91.54807	269.36123	
